<svg width="70" height="21" viewBox="0 0 70 21" fill="none" xmlns="http://www.w3.org/2000/svg">
<path d="M10.525 20.3C9.14167 20.3 7.86667 20.0833 6.7 19.65C5.55 19.2 4.54167 18.5667 3.675 17.75C2.825 16.9333 2.15833 15.975 1.675 14.875C1.20833 13.775 0.975 12.5667 0.975 11.25C0.975 9.93333 1.20833 8.725 1.675 7.625C2.15833 6.525 2.83333 5.56667 3.7 4.75C4.56667 3.93333 5.58333 3.30833 6.75 2.875C7.91667 2.425 9.2 2.2 10.6 2.2C12.15 2.2 13.5417 2.45833 14.775 2.975C16.025 3.49167 17.075 4.24167 17.925 5.225L15.325 7.625C14.6917 6.95833 14 6.46667 13.25 6.15C12.5 5.81667 11.6833 5.65 10.8 5.65C9.95 5.65 9.175 5.78333 8.475 6.05C7.775 6.31667 7.16667 6.7 6.65 7.2C6.15 7.7 5.75833 8.29167 5.475 8.975C5.20833 9.65833 5.075 10.4167 5.075 11.25C5.075 12.0667 5.20833 12.8167 5.475 13.5C5.75833 14.1833 6.15 14.7833 6.65 15.3C7.16667 15.8 7.76667 16.1833 8.45 16.45C9.15 16.7167 9.91667 16.85 10.75 16.85C11.55 16.85 12.325 16.725 13.075 16.475C13.8417 16.2083 14.5833 15.7667 15.3 15.15L17.6 18.075C16.65 18.7917 15.5417 19.3417 14.275 19.725C13.025 20.1083 11.775 20.3 10.525 20.3ZM13.9 17.55V10.975H17.6V18.075L13.9 17.55ZM27.7621 20.2C26.2288 20.2 24.8788 19.9 23.7121 19.3C22.5621 18.7 21.6704 17.8833 21.0371 16.85C20.4038 15.8 20.0871 14.6083 20.0871 13.275C20.0871 11.925 20.3954 10.7333 21.0121 9.7C21.6454 8.65 22.5038 7.83333 23.5871 7.25C24.6704 6.65 25.8954 6.35 27.2621 6.35C28.5788 6.35 29.7621 6.63333 30.8121 7.2C31.8788 7.75 32.7204 8.55 33.3371 9.6C33.9538 10.6333 34.2621 11.875 34.2621 13.325C34.2621 13.475 34.2538 13.65 34.2371 13.85C34.2204 14.0333 34.2038 14.2083 34.1871 14.375H23.2621V12.1H32.1371L30.6371 12.775C30.6371 12.075 30.4954 11.4667 30.2121 10.95C29.9288 10.4333 29.5371 10.0333 29.0371 9.75C28.5371 9.45 27.9538 9.3 27.2871 9.3C26.6204 9.3 26.0288 9.45 25.5121 9.75C25.0121 10.0333 24.6204 10.4417 24.3371 10.975C24.0538 11.4917 23.9121 12.1083 23.9121 12.825V13.425C23.9121 14.1583 24.0704 14.8083 24.3871 15.375C24.7204 15.925 25.1788 16.35 25.7621 16.65C26.3621 16.9333 27.0621 17.075 27.8621 17.075C28.5788 17.075 29.2038 16.9667 29.7371 16.75C30.2871 16.5333 30.7871 16.2083 31.2371 15.775L33.3121 18.025C32.6954 18.725 31.9204 19.2667 30.9871 19.65C30.0538 20.0167 28.9788 20.2 27.7621 20.2ZM45.0336 6.35C46.1003 6.35 47.0503 6.56667 47.8836 7C48.7336 7.41667 49.4003 8.06667 49.8836 8.95C50.3669 9.81667 50.6086 10.9333 50.6086 12.3V20H46.7086V12.9C46.7086 11.8167 46.4669 11.0167 45.9836 10.5C45.5169 9.98333 44.8503 9.725 43.9836 9.725C43.3669 9.725 42.8086 9.85833 42.3086 10.125C41.8253 10.375 41.4419 10.7667 41.1586 11.3C40.8919 11.8333 40.7586 12.5167 40.7586 13.35V20H36.8586V6.55H40.5836V10.275L39.8836 9.15C40.3669 8.25 41.0586 7.55833 41.9586 7.075C42.8586 6.59167 43.8836 6.35 45.0336 6.35ZM54.1438 20V6.55H57.8688V10.35L57.3438 9.25C57.7438 8.3 58.3854 7.58333 59.2688 7.1C60.1521 6.6 61.2271 6.35 62.4938 6.35V9.95C62.3271 9.93333 62.1771 9.925 62.0438 9.925C61.9104 9.90833 61.7688 9.9 61.6188 9.9C60.5521 9.9 59.6854 10.2083 59.0188 10.825C58.3688 11.425 58.0438 12.3667 58.0438 13.65V20H54.1438ZM64.8371 20V6.55H68.7371V20H64.8371ZM66.7871 4.675C66.0704 4.675 65.4871 4.46667 65.0371 4.05C64.5871 3.63333 64.3621 3.11667 64.3621 2.5C64.3621 1.88333 64.5871 1.36667 65.0371 0.949999C65.4871 0.533332 66.0704 0.324998 66.7871 0.324998C67.5038 0.324998 68.0871 0.524999 68.5371 0.925C68.9871 1.30833 69.2121 1.80833 69.2121 2.425C69.2121 3.075 68.9871 3.61667 68.5371 4.05C68.1038 4.46667 67.5204 4.675 66.7871 4.675Z" fill="#4346E7"/>
</svg>
