<svg width="13" height="12" viewBox="0 0 13 12" fill="none" xmlns="http://www.w3.org/2000/svg">
<path d="M2.25361 11.9083C1.89571 11.9083 1.58922 11.8015 1.33413 11.5879C1.07948 11.3739 0.952148 11.1168 0.952148 10.8165V3.17405H2.25361V10.8165H9.41168V11.9083H2.25361ZM4.85655 9.72475C4.49864 9.72475 4.19237 9.61793 3.93771 9.40431C3.68263 9.19032 3.55508 8.9332 3.55508 8.63296V2.08226C3.55508 1.78202 3.68263 1.52491 3.93771 1.31092C4.19237 1.09729 4.49864 0.990479 4.85655 0.990479H10.7131C11.0711 0.990479 11.3775 1.09729 11.6326 1.31092C11.8873 1.52491 12.0146 1.78202 12.0146 2.08226V8.63296C12.0146 8.9332 11.8873 9.19032 11.6326 9.40431C11.3775 9.61793 11.0711 9.72475 10.7131 9.72475H4.85655ZM4.85655 8.63296H10.7131V2.08226H4.85655V8.63296ZM4.85655 8.63296V2.08226V8.63296Z" fill="white"/>
</svg>
